<?xml version="1.0" encoding="utf-8"?>
<!-- Generator: Adobe Illustrator 27.9.0, SVG Export Plug-In . SVG Version: 6.00 Build 0)  -->
<svg class="logo" version="1.1" id="Layer_1" xmlns="http://www.w3.org/2000/svg" xmlns:xlink="http://www.w3.org/1999/xlink" x="0px" y="0px"
	 viewBox="0 0 907.68 350.4"  xml:space="preserve">
<style type="text/css">
	.logo path{fill:#FFFFFF;}
</style>
<g>
	<path d="M31.7,29.04c0-3.44,0-6.7,0-10.14c285.54,0,571.06,0,856.72,0c0,3.35,0,6.67,0,10.14C602.89,29.04,317.44,29.04,31.7,29.04
		z"/>
	<path d="M31.71,333.68c0-3.45,0-6.62,0-9.98c285.55,0,571.08,0,856.73,0c0,3.32,0,6.57,0,9.98
		C602.9,333.68,317.43,333.68,31.71,333.68z"/>
	<path d="M229.74,229.39c13.87-12.19,27.68-24.32,41.57-36.53c-5.05-9.22-10.02-18.3-15.27-27.87c2.39,0,4.4-0.12,6.39,0.08
		c0.56,0.06,1.17,0.97,1.53,1.62c3.45,6.21,6.85,12.46,10.27,18.69c0.57,1.04,1.17,2.07,1.86,3.27c6.73-5.9,13.32-11.68,19.91-17.46
		c6.67-5.86,13.37-11.67,19.96-17.61c1.38-1.24,2.52-1.67,4.21-0.83c1.25,0.62,2.63,1.01,4.28,1.62
		c-15.22,13.39-30.21,26.57-45.34,39.87c21.98,40.04,43.91,79.98,66.05,120.32c-2.37,0-4.3,0.2-6.15-0.1c-0.76-0.12-1.55-1.2-2-2.02
		c-8.57-15.52-17.08-31.08-25.62-46.62c-11.95-21.77-23.91-43.54-35.88-65.31c-0.34-0.63-0.73-1.23-1.22-2.05
		c-13.29,11.68-26.47,23.27-39.88,35.05c30.62,26.92,61.1,53.71,91.58,80.5c-3.89,0.12-7.63,1.66-11.32-1.61
		c-27.21-24.15-54.58-48.1-81.91-72.11c-0.96-0.84-1.92-1.68-3.04-2.64c-5.33,4.67-10.6,9.28-15.86,13.91
		c-23.18,20.38-46.36,40.74-69.5,61.16c-1.54,1.36-3.08,2.07-5.15,1.9c-1.86-0.15-3.74-0.03-5.78-0.57
		c30.47-26.78,60.94-53.57,91.62-80.52c-13.33-11.71-26.56-23.33-39.97-35.12c-3.1,5.64-6.05,11.02-9.01,16.39
		c-17.72,32.28-35.47,64.54-53.1,96.86c-1.25,2.3-2.6,3.38-5.18,2.96c-0.99-0.16-2.04-0.03-3.53-0.03
		c22.14-40.33,44.06-80.28,66.07-120.36c-15.4-13.55-30.69-26.99-46.31-40.73c2.2-0.81,3.99-1.63,5.87-2.09
		c0.62-0.15,1.59,0.48,2.18,1c13.24,11.59,26.44,23.2,39.65,34.82c0.47,0.41,0.96,0.8,1.66,1.38c2.53-4.58,4.99-9.03,7.44-13.48
		c1.42-2.59,2.93-5.14,4.21-7.8c0.87-1.83,2.02-2.68,4.08-2.4c1.24,0.17,2.52,0.03,4.29,0.03c-5.19,9.48-10.16,18.56-15.27,27.88
		C201.97,204.98,215.81,217.15,229.74,229.39z"/>
	<path d="M668.37,101.28c0,16.37,0,32.52,0,48.81c-5.08,0-9.99,0-15.03,0c0-37.31,0-74.55,0-111.98c4.87,0,9.79,0,14.99,0
		c0,15.98,0,32.01,0,48.21c19.76,0,39.23,0,59.01,0c0-16.04,0-32.06,0-48.24c5.21,0,10.11,0,15.16,0c0,37.3,0,74.54,0,111.98
		c-4.87,0-9.78,0-14.95,0c0-16.14,0-32.34,0-48.77C707.77,101.28,688.24,101.28,668.37,101.28z"/>
	<path d="M814.07,33.1c16.45,38.91,32.9,77.83,49.52,117.14c-4.63,0-8.97,0-13.31,0c-4.24,0-4.24,0-5.82-4.01
		c-3.08-7.8-6.2-15.57-9.18-23.41c-0.59-1.56-1.37-1.98-2.97-1.97c-13.04,0.06-26.07,0.08-39.11-0.01c-1.77-0.01-2.48,0.64-3.1,2.18
		c-3.37,8.45-6.9,16.84-10.27,25.29c-0.6,1.51-1.34,2.02-2.97,1.97c-4.22-0.13-8.45-0.04-13.06-0.04
		c16.52-39.22,32.93-78.16,49.33-117.1C813.45,33.13,813.76,33.11,814.07,33.1z M796.54,107.45c11.01,0,21.65,0,32.6,0
		c-5.32-13.43-10.54-26.63-16.01-40.46C807.43,80.86,802.03,94.04,796.54,107.45z"/>
	<path d="M364.97,67.18c0,2.8-0.01,5.35,0,7.9c0.02,8.34,6.23,14.75,14.37,14.83c7.96,0.08,14.33-6.24,14.56-14.46
		c0.04-1.57,0.01-3.15,0.01-5.38c1.3,1.2,2.22,1.91,2.96,2.78c7.04,8.17,8.76,17.5,5.22,27.54c-6.17,17.53-12.68,34.95-19.05,52.41
		c-0.13,0.36-0.35,0.68-0.61,1.18c-16.65-6.04-33.21-12.04-50-18.13c0.43-1.29,0.77-2.4,1.17-3.5
		c6.25-17.25,12.43-34.52,18.81-51.72C354.66,74.53,359.35,69.78,364.97,67.18z"/>
	<path d="M203.28,144.83c0-0.98,0-1.93,0-2.87c0-17.11,0.07-34.23-0.04-51.34c-0.03-5.06-0.11-10.08,1.78-14.87
		c2.07-5.24,5.38-9.48,10.5-12.84c0,4.17-0.04,7.9,0.01,11.63c0.11,7.34,5.68,13.49,12.78,14.17c7.48,0.71,14.32-3.92,15.68-11.14
		c0.67-3.57,0.37-7.32,0.48-10.99c0.03-1.01,0-2.02,0-3.04c0.21-0.13,0.43-0.27,0.64-0.4c1.8,1.71,3.75,3.29,5.36,5.16
		c4.3,4.99,6.26,10.94,6.28,17.45c0.05,19.27-0.01,38.54-0.04,57.82c0,0.38-0.07,0.76-0.11,1.26
		C238.84,144.83,221.2,144.83,203.28,144.83z"/>
	<path d="M76.5,152.92c-3.63-10-7.16-19.66-10.66-29.33c-3.01-8.32-6.32-16.55-8.92-24.99c-3.16-10.27-0.53-19.38,6.98-27.06
		c0.38-0.39,0.83-0.7,1.71-1.43c0,2.16-0.06,3.87,0.01,5.58c0.33,7.98,6.1,13.8,14.03,14.2c7.08,0.36,13.73-4.97,14.64-12.16
		c0.43-3.38,0.07-6.85,0.07-10.68c4.28,1.97,7.39,4.74,9.77,8.26c1.42,2.1,2.68,4.39,3.55,6.76c6.31,17.22,12.49,34.49,18.72,51.74
		c0.08,0.22,0.12,0.46,0.24,0.93C110.01,140.77,93.38,146.8,76.5,152.92z"/>
	<path d="M626.44,45.8c-2.05,4.77-4.05,9.43-5.92,13.79c-5.13-2.31-9.89-5.06-15.02-6.64c-20.65-6.38-42.63,5.25-49.49,26.65
		c-5.5,17.15-2.68,33.14,10.19,46.41c7.1,7.33,16.25,10.4,26.39,10.9c10.55,0.53,20.03-2.39,28.81-8.49
		c2.18,4.53,4.29,8.89,6.39,13.25c-18.88,13.66-52.63,14.33-73.42-5.55c-22.03-21.06-21.06-58.19-4.4-79.06
		C569.04,33.15,602.99,31.47,626.44,45.8z"/>
	<path d="M525.5,38.05c0,4.82,0,9.43,0,14.26c-9.97,0-19.85,0-30.04,0c0,32.69,0,65.18,0,97.8c-5.23,0-10.16,0-15.39,0
		c0-32.44,0-64.93,0-97.67c-10.01,0-19.73,0-29.6,0c0-4.92,0-9.58,0-14.38C475.48,38.05,500.39,38.05,525.5,38.05z"/>
	<path d="M139.65,134.53c1.36,3.73,2.62,7.22,3.97,10.91c-24.44,8.86-48.72,17.66-73.19,26.53c-1.33-3.67-2.6-7.15-3.97-10.9
		C90.87,152.22,115.08,143.44,139.65,134.53z"/>
	<path d="M315.13,146.44c1.38-3.79,2.64-7.21,3.99-10.9c24.45,8.86,48.67,17.64,73.17,26.51c-1.3,3.62-2.56,7.11-3.93,10.91
		C363.95,164.13,339.67,155.33,315.13,146.44z"/>
	<path d="M190.82,160.63c0-3.82,0-7.47,0-11.32c25.89,0,51.68,0,77.64,0c0,3.73,0,7.44,0,11.32
		C242.65,160.63,216.85,160.63,190.82,160.63z"/>
	<path d="M54.57,314.57c0.79-5.13,1.52-9.93,2.26-14.72c3.45-22.17,6.92-44.34,10.36-66.52c2.94-18.94,5.88-37.88,8.79-56.82
		c0.24-1.55,0.75-2.59,2.44-2.96c1.37-0.3,2.68-0.93,4.48-1.58c-0.7,4.64-1.31,8.85-1.97,13.06c-3.46,22.25-6.92,44.5-10.39,66.75
		c-3.17,20.36-6.38,40.71-9.51,61.07c-0.2,1.32-0.66,1.8-1.95,1.73C57.68,314.51,56.26,314.57,54.57,314.57z"/>
	<path d="M404.83,314.38c-6.14,0.6-6.05,0.59-6.93-5.07c-3.59-23.21-7.23-46.41-10.85-69.62c-3.39-21.79-6.78-43.57-10.16-65.36
		c-0.03-0.23,0.04-0.47,0.09-0.95c1.85,0.66,3.67,1.2,5.36,1.99c0.56,0.26,1.06,1.13,1.17,1.79c3.57,22.65,7.08,45.3,10.61,67.96
		c3.43,22.02,6.87,44.04,10.3,66.07C404.57,312.2,404.68,313.22,404.83,314.38z"/>
	<path d="M370.31,38.04c6.17,0,12.22,0,18.49,0c0,0.66,0,1.19,0,1.73c0,11.68,0.03,23.36-0.01,35.04
		c-0.02,6.45-5.15,10.89-11.13,9.76c-4.22-0.8-7.52-4.43-7.55-8.73c-0.07-12.4-0.01-24.8,0.01-37.2
		C370.12,38.5,370.21,38.35,370.31,38.04z"/>
	<path d="M71.01,37.99c6.04,0,12.01,0,18.2,0c0.04,0.82,0.12,1.59,0.12,2.35c0.01,11.58,0.01,23.16,0,34.74
		c-0.01,5.45-3.95,9.61-9.15,9.69c-5.07,0.08-9.37-3.88-9.42-9.21c-0.13-12.3-0.02-24.6,0-36.9C70.77,38.53,70.87,38.39,71.01,37.99
		z"/>
	<path d="M220.63,37.03c6.39,0,12.43,0,18.58,0c0.06,0.75,0.15,1.37,0.15,1.99c0.01,11.35-0.01,22.7,0.02,34.05
		c0.01,3.86-1.19,7.09-4.59,9.18c-6.18,3.79-13.94-0.48-14.12-7.87c-0.16-6.71-0.04-13.43-0.04-20.14
		C220.63,48.57,220.63,42.91,220.63,37.03z"/>
	<path d="M492.1,205.59c4-0.58,4-0.58,5.22,2.83c1.58,4.44,3.15,8.88,4.73,13.32c0.26,0.72,0.56,1.42,1.07,2.71
		c1.6-4.16,3.1-7.73,4.28-11.41c0.28-0.87-0.45-2.1-0.8-3.14c-0.49-1.43-1.06-2.82-1.62-4.3c2.3-0.71,3.58-0.27,4.42,2.13
		c1.89,5.4,4.13,10.68,6.39,16.43c1.94-5.61,3.87-10.77,5.46-16.03c0.76-2.54,2.02-3.36,4.79-2.54
		c-3.38,8.97-6.76,17.93-10.34,27.43c-2.16-5.46-4.11-10.42-6.23-15.78c-2.3,5.33-4.46,10.32-6.86,15.85
		C499.01,223.64,495.6,214.72,492.1,205.59z"/>
	<path d="M525.28,245.87c4.42,6.27,8.59,12.17,12.94,18.35c4.4-6.12,8.64-12.03,13.17-18.34c0,9.31,0,18.12,0,27.1c-1,0-2,0-3.27,0
		c0-5.35,0-10.73,0-16.12c-0.19-0.07-0.38-0.14-0.57-0.21c-3.06,4.3-6.11,8.6-9.35,13.16c-3.1-4.3-6.1-8.46-9.1-12.62
		c-0.15,0.06-0.3,0.11-0.44,0.17c0,5.15,0,10.3,0,15.62c-1.21,0-2.21,0-3.38,0C525.28,264.15,525.28,255.26,525.28,245.87z"/>
	<path d="M500.09,246.22c7.37-0.01,13.55,6.15,13.62,13.59c0.07,7.42-6.04,13.54-13.55,13.58c-7.7,0.04-13.72-5.95-13.7-13.63
		C486.47,252.33,492.61,246.24,500.09,246.22z M500,269.96c5.54,0.08,9.94-4.39,9.97-10.11c0.03-5.62-4.44-10.22-9.92-10.23
		c-5.4-0.01-9.73,4.41-9.84,10.04C490.09,265.32,494.43,269.88,500,269.96z"/>
	<path d="M698.44,246.22c7.34,0.02,13.51,6.27,13.51,13.69c0,7.44-6.12,13.47-13.66,13.47c-7.67,0-13.69-6.09-13.6-13.74
		C684.79,252.21,690.93,246.2,698.44,246.22z M708.2,259.86c0.03-5.62-4.42-10.23-9.91-10.24c-5.5-0.01-9.86,4.53-9.85,10.27
		c0,5.55,4.31,9.98,9.78,10.07C703.76,270.05,708.17,265.59,708.2,259.86z"/>
	<path d="M748.91,259.83c0.06,7.43-6.05,13.53-13.57,13.56c-7.69,0.03-13.71-5.97-13.69-13.65c0.03-7.33,6.09-13.43,13.42-13.52
		C742.59,246.14,748.85,252.29,748.91,259.83z M735.41,269.96c5.55-0.06,9.85-4.61,9.75-10.32c-0.09-5.53-4.49-9.99-9.89-10.01
		c-5.58-0.02-9.99,4.67-9.87,10.49C725.52,265.66,729.95,270.02,735.41,269.96z"/>
	<path d="M500.59,287.5c7.37-0.01,13.54,6.16,13.6,13.6c0.06,7.43-6.05,13.53-13.57,13.56c-7.69,0.03-13.71-5.97-13.69-13.64
		C486.96,293.6,493.1,287.51,500.59,287.5z M500.5,311.24c5.54,0.06,9.93-4.41,9.94-10.13c0.01-5.62-4.47-10.21-9.95-10.2
		c-5.4,0.01-9.72,4.43-9.82,10.06C490.58,306.62,494.94,311.18,500.5,311.24z"/>
	<path d="M475.03,273.06c-1.2,0-2.14,0-3.38,0c0-3.77,0-7.49,0-11.36c-4.72,0-9.15,0-13.88,0c0,3.74,0,7.45,0,11.29
		c-1.36,0-2.43,0-3.6,0c0-8.79,0-17.48,0-26.36c1.08,0,2.14,0,3.49,0c0,3.69,0,7.33,0,11.15c4.7,0,9.12,0,13.83,0
		c0-3.68,0-7.32,0-11.14c1.33,0,2.38,0,3.54,0C475.03,255.46,475.03,264.15,475.03,273.06z"/>
	<path d="M652.44,246.58c1.12,0,2.13,0,3.41,0c0,3.69,0,7.32,0,11.17c4.69,0,9.12,0,13.83,0c0-3.59,0-7.23,0-11.08
		c1.33,0,2.38,0,3.56,0c0,8.73,0,17.41,0,26.28c-1.07,0-2.13,0-3.38,0c0-3.71,0-7.37,0-11.22c-4.62,0-9.05,0-13.79,0
		c0,3.65,0,7.36,0,11.23c-1.36,0-2.43,0-3.63,0C652.44,264.21,652.44,255.47,652.44,246.58z"/>
	<path d="M635.3,302.96c0,3.85,0,7.57,0,11.37c-1.3,0-2.32,0-3.49,0c0-8.8,0-17.55,0-26.45c1.07,0,2.08,0,3.37,0
		c0,3.64,0,7.28,0,11.14c4.69,0,9.12,0,13.91,0c0-3.61,0-7.31,0-11.14c1.36,0,2.35,0,3.5,0c0,8.84,0,17.58,0,26.43
		c-1.13,0-2.14,0-3.43,0c0-3.8,0-7.52,0-11.36C644.45,302.96,640.01,302.96,635.3,302.96z"/>
	<path d="M599.95,224.44c0-6.74,0-12.8,0-19.07c1.14,0,2.19,0,3.39,0c0,8.97,0,17.87,0,26.88c-6.46-6.36-12.78-12.59-19.39-19.11
		c0,6.37,0,12.38,0,18.55c-1.27,0-2.33,0-3.52,0c0-8.96,0-17.86,0-27.32C587.01,211.14,593.26,217.57,599.95,224.44z"/>
	<path d="M775.8,287.6c3.37,0.16,6.66,0.07,9.86,0.55c3.13,0.46,5.48,2.4,6.21,5.6c0.74,3.27,0.29,6.39-2.38,8.81
		c-0.46,0.42-0.95,0.79-1.55,1.29c2.11,3.45,4.18,6.82,6.32,10.31c-2.53,0.64-4.35,0.4-5.5-2.07c-0.77-1.65-1.95-3.11-2.93-4.66
		c-2.06-3.26-2.05-3.26-6.45-2.55c0,3.03,0,6.11,0,9.36c-1.32,0-2.38,0-3.58,0C775.8,305.49,775.8,296.74,775.8,287.6z
		 M779.46,291.34c0,3.39,0,6.46,0,9.86c2.93-0.25,5.97,0.78,8.05-2.04c1.29-1.76,1.3-3.76,0.16-5.63
		C785.68,290.29,782.51,291.51,779.46,291.34z"/>
	<path d="M830.13,262.54c1.13,1.83,2.17,3.52,3.21,5.22c1.03,1.68,2.06,3.36,3.14,5.13c-2.54,0.67-4.35,0.37-5.5-2.09
		c-0.77-1.65-1.95-3.11-2.93-4.66c-2.06-3.27-2.06-3.27-6.45-2.5c0,3.03,0,6.11,0,9.35c-1.32,0-2.39,0-3.58,0c0-8.73,0-17.42,0-26.4
		c3.86-0.11,7.73-0.64,11.5,0.76C835.67,249.62,836.13,258.81,830.13,262.54z M821.69,259.89c3.18-0.17,6.38,0.78,8.29-2.4
		c1.12-1.87,0.98-3.88-0.33-5.63c-2.14-2.86-5.16-1.56-7.96-1.85C821.69,253.43,821.69,256.5,821.69,259.89z"/>
	<path d="M545.99,303.84c2.15,3.48,4.19,6.8,6.33,10.27c-2.41,0.68-4.22,0.58-5.4-1.89c-0.75-1.57-2.05-2.89-2.77-4.47
		c-1.31-2.87-3.35-3.84-6.66-2.85c0,2.97,0,6.12,0,9.39c-1.35,0-2.36,0-3.56,0c0-8.7,0-17.44,0-26.76
		c3.52,0.26,7.18,0.02,10.57,0.89c6.15,1.57,7.82,9.69,3.17,14.05C547.2,302.89,546.68,303.27,545.99,303.84z M537.56,291.34
		c0,3.43,0,6.5,0,9.77c2.97-0.07,6.01,0.82,8.06-2c1.28-1.76,1.27-3.78,0.1-5.63C543.71,290.28,540.54,291.53,537.56,291.34z"/>
	<path d="M823.15,228.31c0,1.35,0,2.29,0,3.39c-5.85,0-11.64,0-17.57,0c0-8.76,0-17.5,0-26.39c5.7,0,11.34,0,17.06,0
		c0,1.14,0,2.15,0,3.39c-4.46,0-8.83,0-13.37,0c0,2.71,0,5.2,0,7.95c3.99,0,7.87,0,11.89,0c0,1.26,0,2.26,0,3.57
		c-3.92,0-7.87,0-11.94,0c0,2.82,0,5.33,0,8.09C813.87,228.31,818.39,228.31,823.15,228.31z"/>
	<path d="M580.7,261.54c-4.06,0-7.88,0-11.9,0c0,2.71,0,5.27,0,8.09c4.64,0,9.16,0,13.8,0c0,1.24,0,2.24,0,3.37
		c-5.83,0-11.62,0-17.53,0c0-8.76,0-17.44,0-26.34c5.61,0,11.22,0,17.01,0c0,1.02,0,2.07,0,3.36c-4.45,0-8.81,0-13.33,0
		c0,2.66,0,5.09,0,7.86c3.94,0,7.89,0,11.95,0C580.7,259.22,580.7,260.23,580.7,261.54z"/>
	<path d="M806.33,269.62c0,1.36,0,2.3,0,3.38c-5.87,0-11.66,0-17.57,0c0-8.75,0-17.43,0-26.33c5.6,0,11.22,0,17.01,0
		c0,1.01,0,2.07,0,3.35c-4.44,0-8.8,0-13.32,0c0,2.66,0,5.09,0,7.86c3.94,0,7.88,0,11.94,0c0,1.34,0,2.35,0,3.59
		c-3.92,0-7.8,0-11.89,0c0,2.78,0,5.34,0,8.16C797.11,269.62,801.63,269.62,806.33,269.62z"/>
	<path d="M674,314.25c0-8.85,0-17.54,0-26.37c5.73,0,11.37,0,17.11,0c0,1.12,0,2.13,0,3.37c-4.45,0-8.81,0-13.36,0
		c0,2.71,0,5.2,0,7.95c3.96,0,7.84,0,11.87,0c0,1.26,0,2.25,0,3.57c-3.9,0-7.84,0-11.92,0c0,2.82,0,5.33,0,8.09
		c4.63,0,9.16,0,13.84,0c0,1.23,0,2.23,0,3.4C685.79,314.25,680.01,314.25,674,314.25z"/>
	<path d="M733.78,314.07c3.77-9.01,7.54-18.02,11.57-27.68c4.04,9.63,7.85,18.68,11.67,27.79c-3.95,0.53-3.95,0.53-5.23-2.79
		c-0.29-0.74-0.66-1.46-0.86-2.23c-0.34-1.3-1.08-1.86-2.42-1.7c-0.63,0.07-1.29,0.1-1.91,0c-4.69-0.82-7.93,0.43-8.99,5.63
		c-0.16,0.78-2.07,1.21-3.16,1.8C734.23,314.62,734,314.35,733.78,314.07z M748.99,304.23c-1.3-3.29-2.45-6.22-3.76-9.54
		c-1.37,3.39-2.58,6.38-3.85,9.54C744.05,304.23,746.34,304.23,748.99,304.23z"/>
	<path d="M609.59,248.01c-0.74,1.48-1.12,2.25-1.46,2.92c-2.16-0.48-4.14-1.12-6.17-1.31c-2.11-0.2-4.11,0.43-4.67,2.83
		c-0.54,2.35,1.12,3.5,2.93,4.36c1.58,0.75,3.27,1.3,4.85,2.06c3.61,1.73,5.11,4.62,4.47,8.39c-0.54,3.18-3.27,5.62-6.89,6.04
		c-3.71,0.43-7.12-0.42-10.36-2.7c0.44-0.85,0.87-1.67,1.31-2.52c1.79,0.66,3.43,1.57,5.17,1.83c1.58,0.24,3.41,0.13,4.86-0.47
		c2.83-1.15,3.17-4.8,0.72-6.65c-1.06-0.81-2.37-1.3-3.59-1.88c-0.72-0.35-1.5-0.57-2.22-0.9c-4.13-1.9-5.75-4.66-4.88-8.25
		c0.8-3.28,4.12-5.69,8.1-5.4C604.26,246.55,606.7,247.38,609.59,248.01z"/>
	<path d="M846.17,311.84c0.5-0.9,0.95-1.71,1.37-2.47c1.88,0.69,3.53,1.53,5.28,1.87c1.35,0.26,3.02,0.29,4.17-0.3
		c1.17-0.6,2.46-2.02,2.62-3.23c0.16-1.2-0.68-3.05-1.69-3.78c-1.84-1.33-4.15-1.99-6.22-3.02c-2.51-1.25-4.29-3.04-4.31-6.09
		c-0.02-3.17,1.93-5.82,5.12-6.75c3.76-1.09,7.22-0.21,10.72,1.68c-0.44,0.93-0.8,1.7-1.24,2.65c-1.11-0.38-2.11-0.86-3.17-1.04
		c-1.48-0.25-3.13-0.69-4.46-0.27c-1.24,0.39-2.74,1.65-3.03,2.8c-0.25,0.99,0.74,2.8,1.72,3.48c1.73,1.21,3.89,1.8,5.83,2.73
		c2.79,1.33,4.62,3.34,4.65,6.66c0.03,3.87-2.15,6.83-5.92,7.63C853.51,315.25,849.73,314.36,846.17,311.84z"/>
	<path d="M846.15,229.28c0.56-0.96,1.03-1.77,1.42-2.44c1.92,0.7,3.59,1.52,5.35,1.87c1.27,0.26,2.86,0.29,3.95-0.28
		c1.18-0.62,2.3-1.9,2.81-3.16c0.66-1.63-0.22-3.18-1.77-4.03c-1.67-0.92-3.46-1.62-5.21-2.41c-4.31-1.94-6-4.68-5.11-8.34
		c0.85-3.5,4.61-5.93,8.81-5.4c2.25,0.28,4.44,1.06,7.02,1.71c-0.62,1.29-1.01,2.11-1.36,2.85c-2.16-0.48-4.15-1.12-6.17-1.32
		c-2.11-0.2-4.11,0.42-4.67,2.82c-0.55,2.35,1.11,3.5,2.92,4.36c1.58,0.75,3.27,1.3,4.85,2.06c3.61,1.73,5.11,4.61,4.47,8.39
		c-0.53,3.18-3.26,5.62-6.88,6.05C852.87,232.46,849.46,231.61,846.15,229.28z"/>
	<path d="M845.69,270.56c0.49-0.88,0.94-1.69,1.38-2.47c1.84,0.68,3.49,1.57,5.24,1.85c1.5,0.24,3.24,0.13,4.65-0.41
		c2.95-1.15,3.32-4.87,0.79-6.79c-0.88-0.67-1.93-1.12-2.94-1.59c-0.94-0.44-1.94-0.74-2.88-1.18c-3.95-1.83-5.52-4.36-4.89-7.82
		c0.58-3.21,3.44-5.77,7.32-5.74c2.77,0.02,5.53,0.91,8.73,1.5c-0.76,1.53-1.17,2.35-1.5,3.01c-2.23-0.48-4.22-1.13-6.25-1.3
		c-2.54-0.21-4.3,1.03-4.62,2.91c-0.38,2.25,1.1,3.38,2.83,4.21c1.65,0.8,3.41,1.36,5.06,2.16c3.51,1.7,4.95,4.46,4.41,8.2
		c-0.46,3.2-3.14,5.7-6.76,6.17C852.45,273.77,848.97,272.91,845.69,270.56z"/>
	<path d="M469.74,288.02c0,0.99,0,1.99,0,3.28c-2.08,0-4.05,0-6.03,0c-1.9,0-3.8,0-5.85,0c0,2.82,0,5.4,0,8.25c3.46,0,6.86,0,10.4,0
		c0,1.26,0,2.26,0,3.54c-3.39,0-6.79,0-10.5,0c0,3.89,0,7.51,0,11.23c-1.34,0-2.36,0-3.54,0c0-8.68,0-17.34,0-26.3
		C459.3,288.02,464.46,288.02,469.74,288.02z"/>
	<path d="M679.63,207.16c-0.46,1.08-0.88,2.08-1.3,3.08c-6.38-2.72-10.55-2.14-13.54,1.75c-2.96,3.85-3.01,9.33-0.12,13.15
		c2.9,3.84,7.56,4.47,13.9,1.76c0.44,0.89,0.88,1.79,1.32,2.66c-4.21,3.76-12.22,3.34-16.78-0.79c-5.03-4.55-5.81-12.99-1.72-18.58
		C665.47,204.63,673.06,203.28,679.63,207.16z"/>
	<path d="M640.24,248.48c-0.4,0.97-0.81,1.98-1.29,3.17c-2.85-1.55-5.71-2.82-8.73-1.55c-1.77,0.75-3.58,1.88-4.8,3.33
		c-3.06,3.66-2.98,9.11-0.17,12.9c2.83,3.84,6.99,4.43,14.02,1.93c0.42,0.89,0.84,1.8,1.25,2.67c-4.96,3.84-13.04,3.11-17.41-1.45
		c-4.64-4.83-4.96-13.26-0.71-18.49C626.66,245.75,634.23,244.63,640.24,248.48z"/>
	<path d="M594.69,291.27c0-1.38,0-2.24,0-3.33c5.85,0,11.63,0,17.57,0c0,1,0,1.99,0,3.3c-2.25,0-4.52,0-7.04,0
		c0,7.86,0,15.41,0,23.07c-1.27,0-2.28,0-3.57,0c0-7.64,0-15.2,0-23.04C599.17,291.27,596.98,291.27,594.69,291.27z"/>
	<path d="M739.98,208.71c-2.6,0-4.73,0-6.99,0c0-1.21,0-2.21,0-3.38c5.88,0,11.67,0,17.55,0c0,1.12,0,2.13,0,3.35
		c-2.32,0-4.53,0-7.01,0c0,7.77,0,15.32,0,23.02c-1.27,0-2.27,0-3.55,0C739.98,224.16,739.98,216.61,739.98,208.71z"/>
	<path d="M821.7,291.22c0,7.88,0,15.38,0,23.03c-1.18,0-2.17,0-3.46,0c0-7.51,0-15.06,0-22.89c-2.47,0-4.67,0-7.01,0
		c0-1.28,0-2.28,0-3.46c5.84,0,11.63,0,17.54,0c0,1.09,0,2.09,0,3.32C826.47,291.22,824.26,291.22,821.7,291.22z"/>
	<path d="M469.78,205.29c0,1.18,0,2.12,0,3.38c-2.32,0-4.59,0-7.12,0c0,7.86,0,15.41,0,23.07c-1.27,0-2.28,0-3.57,0
		c0-7.62,0-15.18,0-22.95c-2.4,0-4.53,0-6.85,0c0-1.26,0-2.31,0-3.49C458.06,205.29,463.79,205.29,469.78,205.29z"/>
	<path d="M760.47,246.6c1.2,0,2.2,0,3.51,0c0,7.69,0,15.24,0,23.05c4.58,0,8.86,0,13.26,0c0,1.27,0,2.26,0,3.37
		c-5.63,0-11.11,0-16.77,0C760.47,264.26,760.47,255.52,760.47,246.6z"/>
	<path d="M705.25,205.32c1.21,0,2.21,0,3.35,0c0,8.88,0,17.62,0,26.45c-1.16,0-2.18,0-3.35,0
		C705.25,222.98,705.25,214.24,705.25,205.32z"/>
	<path d="M775.32,205.25c1.19,0,2.13,0,3.29,0c0,8.8,0,17.52,0,26.43c-1.03,0-2.09,0-3.29,0
		C775.32,222.95,775.32,214.21,775.32,205.25z"/>
	<path d="M554,231.76c-1.18,0-2.19,0-3.33,0c0-8.84,0-17.57,0-26.45c1.12,0,2.12,0,3.33,0C554,214.08,554,222.81,554,231.76z"/>
</g>
</svg>
