<?xml version="1.0" encoding="UTF-8" standalone="no"?>
<!-- Generator: Adobe Illustrator 27.9.0, SVG Export Plug-In . SVG Version: 6.00 Build 0)  -->

<svg
   version="1.1"
   id="Layer_1"
   x="0px"
   y="0px"
   viewBox="0 0 823883.01 122780.16"
   xml:space="preserve"
   width="823883"
   height="122780.16"
   xmlns="http://www.w3.org/2000/svg"
   xmlns:svg="http://www.w3.org/2000/svg">
<style
   type="text/css"
   id="style1">
	.st1{fill:#000000;}
</style>

	
	<path
   class="st1" fill="rgb(51 84 109)" stroke="rgb(51 84 109)"
   d="m 31.7,29.04 c 0,-3.44 0,-6.7 0,-10.14 285.54,0 571.06,0 856.72,0 0,3.35 0,6.67 0,10.14 -285.53,0 -570.98,0 -856.72,0 z"
   id="path2"
   style="display:inline" />
	<path
   class="st1" fill="rgb(51 84 109)" stroke="rgb(51 84 109)"
   d="m 31.71,333.68 c 0,-3.45 0,-6.62 0,-9.98 285.55,0 571.08,0 856.73,0 0,3.32 0,6.57 0,9.98 -285.54,0 -571.01,0 -856.73,0 z"
   id="path3"
   style="display:inline" />
	<path
   class="st1" fill="rgb(51 84 109)" stroke="rgb(51 84 109)"
   d="m 229.74,229.39 c 13.87,-12.19 27.68,-24.32 41.57,-36.53 -5.05,-9.22 -10.02,-18.3 -15.27,-27.87 2.39,0 4.4,-0.12 6.39,0.08 0.56,0.06 1.17,0.97 1.53,1.62 3.45,6.21 6.85,12.46 10.27,18.69 0.57,1.04 1.17,2.07 1.86,3.27 6.73,-5.9 13.32,-11.68 19.91,-17.46 6.67,-5.86 13.37,-11.67 19.96,-17.61 1.38,-1.24 2.52,-1.67 4.21,-0.83 1.25,0.62 2.63,1.01 4.28,1.62 -15.22,13.39 -30.21,26.57 -45.34,39.87 21.98,40.04 43.91,79.98 66.05,120.32 -2.37,0 -4.3,0.2 -6.15,-0.1 -0.76,-0.12 -1.55,-1.2 -2,-2.02 -8.57,-15.52 -17.08,-31.08 -25.62,-46.62 -11.95,-21.77 -23.91,-43.54 -35.88,-65.31 -0.34,-0.63 -0.73,-1.23 -1.22,-2.05 -13.29,11.68 -26.47,23.27 -39.88,35.05 30.62,26.92 61.1,53.71 91.58,80.5 -3.89,0.12 -7.63,1.66 -11.32,-1.61 -27.21,-24.15 -54.58,-48.1 -81.91,-72.11 -0.96,-0.84 -1.92,-1.68 -3.04,-2.64 -5.33,4.67 -10.6,9.28 -15.86,13.91 -23.18,20.38 -46.36,40.74 -69.5,61.16 -1.54,1.36 -3.08,2.07 -5.15,1.9 -1.86,-0.15 -3.74,-0.03 -5.78,-0.57 30.47,-26.78 60.94,-53.57 91.62,-80.52 -13.33,-11.71 -26.56,-23.33 -39.97,-35.12 -3.1,5.64 -6.05,11.02 -9.01,16.39 -17.72,32.28 -35.47,64.54 -53.1,96.86 -1.25,2.3 -2.6,3.38 -5.18,2.96 -0.99,-0.16 -2.04,-0.03 -3.53,-0.03 22.14,-40.33 44.06,-80.28 66.07,-120.36 -15.4,-13.55 -30.69,-26.99 -46.31,-40.73 2.2,-0.81 3.99,-1.63 5.87,-2.09 0.62,-0.15 1.59,0.48 2.18,1 13.24,11.59 26.44,23.2 39.65,34.82 0.47,0.41 0.96,0.8 1.66,1.38 2.53,-4.58 4.99,-9.03 7.44,-13.48 1.42,-2.59 2.93,-5.14 4.21,-7.8 0.87,-1.83 2.02,-2.68 4.08,-2.4 1.24,0.17 2.52,0.03 4.29,0.03 -5.19,9.48 -10.16,18.56 -15.27,27.88 13.84,12.14 27.68,24.31 41.61,36.55 z"
   id="path4"
   style="display:inline" />
	<path
   class="st1" fill="rgb(51 84 109)" stroke="rgb(51 84 109)"
   d="m 668.37,101.28 c 0,16.37 0,32.52 0,48.81 -5.08,0 -9.99,0 -15.03,0 0,-37.31 0,-74.55 0,-111.98 4.87,0 9.79,0 14.99,0 0,15.98 0,32.01 0,48.21 19.76,0 39.23,0 59.01,0 0,-16.04 0,-32.06 0,-48.24 5.21,0 10.11,0 15.16,0 0,37.3 0,74.54 0,111.98 -4.87,0 -9.78,0 -14.95,0 0,-16.14 0,-32.34 0,-48.77 -19.78,-0.01 -39.31,-0.01 -59.18,-0.01 z"
   id="path5" />
	<path
   class="st1" fill="rgb(51 84 109)" stroke="rgb(51 84 109)"
   d="m 814.07,33.1 c 16.45,38.91 32.9,77.83 49.52,117.14 -4.63,0 -8.97,0 -13.31,0 -4.24,0 -4.24,0 -5.82,-4.01 -3.08,-7.8 -6.2,-15.57 -9.18,-23.41 -0.59,-1.56 -1.37,-1.98 -2.97,-1.97 -13.04,0.06 -26.07,0.08 -39.11,-0.01 -1.77,-0.01 -2.48,0.64 -3.1,2.18 -3.37,8.45 -6.9,16.84 -10.27,25.29 -0.6,1.51 -1.34,2.02 -2.97,1.97 -4.22,-0.13 -8.45,-0.04 -13.06,-0.04 16.52,-39.22 32.93,-78.16 49.33,-117.1 0.32,-0.01 0.63,-0.03 0.94,-0.04 z m -17.53,74.35 c 11.01,0 21.65,0 32.6,0 -5.32,-13.43 -10.54,-26.63 -16.01,-40.46 -5.7,13.87 -11.1,27.05 -16.59,40.46 z"
   id="path6" />
	<path
   class="st1" fill="rgb(51 84 109)" stroke="rgb(51 84 109)"
   d="m 364.97,67.18 c 0,2.8 -0.01,5.35 0,7.9 0.02,8.34 6.23,14.75 14.37,14.83 7.96,0.08 14.33,-6.24 14.56,-14.46 0.04,-1.57 0.01,-3.15 0.01,-5.38 1.3,1.2 2.22,1.91 2.96,2.78 7.04,8.17 8.76,17.5 5.22,27.54 -6.17,17.53 -12.68,34.95 -19.05,52.41 -0.13,0.36 -0.35,0.68 -0.61,1.18 -16.65,-6.04 -33.21,-12.04 -50,-18.13 0.43,-1.29 0.77,-2.4 1.17,-3.5 6.25,-17.25 12.43,-34.52 18.81,-51.72 2.25,-6.1 6.94,-10.85 12.56,-13.45 z"
   id="path7" />
	<path
   class="st1" fill="rgb(51 84 109)" stroke="rgb(51 84 109)"
   d="m 203.28,144.83 c 0,-0.98 0,-1.93 0,-2.87 0,-17.11 0.07,-34.23 -0.04,-51.34 -0.03,-5.06 -0.11,-10.08 1.78,-14.87 2.07,-5.24 5.38,-9.48 10.5,-12.84 0,4.17 -0.04,7.9 0.01,11.63 0.11,7.34 5.68,13.49 12.78,14.17 7.48,0.71 14.32,-3.92 15.68,-11.14 0.67,-3.57 0.37,-7.32 0.48,-10.99 0.03,-1.01 0,-2.02 0,-3.04 0.21,-0.13 0.43,-0.27 0.64,-0.4 1.8,1.71 3.75,3.29 5.36,5.16 4.3,4.99 6.26,10.94 6.28,17.45 0.05,19.27 -0.01,38.54 -0.04,57.82 0,0.38 -0.07,0.76 -0.11,1.26 -17.76,0 -35.4,0 -53.32,0 z"
   id="path8" />
	<path
   class="st1" fill="rgb(51 84 109)" stroke="rgb(51 84 109)"
   d="m 76.5,152.92 c -3.63,-10 -7.16,-19.66 -10.66,-29.33 -3.01,-8.32 -6.32,-16.55 -8.92,-24.99 -3.16,-10.27 -0.53,-19.38 6.98,-27.06 0.38,-0.39 0.83,-0.7 1.71,-1.43 0,2.16 -0.06,3.87 0.01,5.58 0.33,7.98 6.1,13.8 14.03,14.2 7.08,0.36 13.73,-4.97 14.64,-12.16 0.43,-3.38 0.07,-6.85 0.07,-10.68 4.28,1.97 7.39,4.74 9.77,8.26 1.42,2.1 2.68,4.39 3.55,6.76 6.31,17.22 12.49,34.49 18.72,51.74 0.08,0.22 0.12,0.46 0.24,0.93 -16.63,6.03 -33.26,12.06 -50.14,18.18 z"
   id="path9" />
	<path
   class="st1" fill="rgb(51 84 109)" stroke="rgb(51 84 109)"
   d="m 626.44,45.8 c -2.05,4.77 -4.05,9.43 -5.92,13.79 -5.13,-2.31 -9.89,-5.06 -15.02,-6.64 -20.65,-6.38 -42.63,5.25 -49.49,26.65 -5.5,17.15 -2.68,33.14 10.19,46.41 7.1,7.33 16.25,10.4 26.39,10.9 10.55,0.53 20.03,-2.39 28.81,-8.49 2.18,4.53 4.29,8.89 6.39,13.25 -18.88,13.66 -52.63,14.33 -73.42,-5.55 -22.03,-21.06 -21.06,-58.19 -4.4,-79.06 19.07,-23.91 53.02,-25.59 76.47,-11.26 z"
   id="path10" />
	<path
   class="st1" fill="rgb(51 84 109)" stroke="rgb(51 84 109)"
   d="m 525.5,38.05 c 0,4.82 0,9.43 0,14.26 -9.97,0 -19.85,0 -30.04,0 0,32.69 0,65.18 0,97.8 -5.23,0 -10.16,0 -15.39,0 0,-32.44 0,-64.93 0,-97.67 -10.01,0 -19.73,0 -29.6,0 0,-4.92 0,-9.58 0,-14.38 25.01,-0.01 49.92,-0.01 75.03,-0.01 z"
   id="path11" />
	<path
   class="st1" fill="rgb(51 84 109)" stroke="rgb(51 84 109)"
   d="m 139.65,134.53 c 1.36,3.73 2.62,7.22 3.97,10.91 -24.44,8.86 -48.72,17.66 -73.19,26.53 -1.33,-3.67 -2.6,-7.15 -3.97,-10.9 24.41,-8.85 48.62,-17.63 73.19,-26.54 z"
   id="path12" />
	<path
   class="st1" fill="rgb(51 84 109)" stroke="rgb(51 84 109)"
   d="m 315.13,146.44 c 1.38,-3.79 2.64,-7.21 3.99,-10.9 24.45,8.86 48.67,17.64 73.17,26.51 -1.3,3.62 -2.56,7.11 -3.93,10.91 -24.41,-8.83 -48.69,-17.63 -73.23,-26.52 z"
   id="path13" />
	<path
   class="st1" fill="rgb(51 84 109)" stroke="rgb(51 84 109)"
   d="m 190.82,160.63 c 0,-3.82 0,-7.47 0,-11.32 25.89,0 51.68,0 77.64,0 0,3.73 0,7.44 0,11.32 -25.81,0 -51.61,0 -77.64,0 z"
   id="path14" />
	<path
   class="st1" fill="rgb(51 84 109)" stroke="rgb(51 84 109)"
   d="m 54.57,314.57 c 0.79,-5.13 1.52,-9.93 2.26,-14.72 3.45,-22.17 6.92,-44.34 10.36,-66.52 2.94,-18.94 5.88,-37.88 8.79,-56.82 0.24,-1.55 0.75,-2.59 2.44,-2.96 1.37,-0.3 2.68,-0.93 4.48,-1.58 -0.7,4.64 -1.31,8.85 -1.97,13.06 -3.46,22.25 -6.92,44.5 -10.39,66.75 -3.17,20.36 -6.38,40.71 -9.51,61.07 -0.2,1.32 -0.66,1.8 -1.95,1.73 -1.4,-0.07 -2.82,-0.01 -4.51,-0.01 z"
   id="path15" />
	<path
   class="st1" fill="rgb(51 84 109)" stroke="rgb(51 84 109)"
   d="m 404.83,314.38 c -6.14,0.6 -6.05,0.59 -6.93,-5.07 -3.59,-23.21 -7.23,-46.41 -10.85,-69.62 -3.39,-21.79 -6.78,-43.57 -10.16,-65.36 -0.03,-0.23 0.04,-0.47 0.09,-0.95 1.85,0.66 3.67,1.2 5.36,1.99 0.56,0.26 1.06,1.13 1.17,1.79 3.57,22.65 7.08,45.3 10.61,67.96 3.43,22.02 6.87,44.04 10.3,66.07 0.15,1.01 0.26,2.03 0.41,3.19 z"
   id="path16" />
	<path
   class="st1" fill="rgb(51 84 109)" stroke="rgb(51 84 109)"
   d="m 370.31,38.04 c 6.17,0 12.22,0 18.49,0 0,0.66 0,1.19 0,1.73 0,11.68 0.03,23.36 -0.01,35.04 -0.02,6.45 -5.15,10.89 -11.13,9.76 -4.22,-0.8 -7.52,-4.43 -7.55,-8.73 -0.07,-12.4 -0.01,-24.8 0.01,-37.2 0,-0.14 0.09,-0.29 0.19,-0.6 z"
   id="path17" />
	<path
   class="st1" fill="rgb(51 84 109)" stroke="rgb(51 84 109)"
   d="m 71.01,37.99 c 6.04,0 12.01,0 18.2,0 0.04,0.82 0.12,1.59 0.12,2.35 0.01,11.58 0.01,23.16 0,34.74 -0.01,5.45 -3.95,9.61 -9.15,9.69 -5.07,0.08 -9.37,-3.88 -9.42,-9.21 -0.13,-12.3 -0.02,-24.6 0,-36.9 0.01,-0.13 0.11,-0.27 0.25,-0.67 z"
   id="path18" />
	<path
   class="st1" fill="rgb(51 84 109)" stroke="rgb(51 84 109)"
   d="m 220.63,37.03 c 6.39,0 12.43,0 18.58,0 0.06,0.75 0.15,1.37 0.15,1.99 0.01,11.35 -0.01,22.7 0.02,34.05 0.01,3.86 -1.19,7.09 -4.59,9.18 -6.18,3.79 -13.94,-0.48 -14.12,-7.87 -0.16,-6.71 -0.04,-13.43 -0.04,-20.14 0,-5.67 0,-11.33 0,-17.21 z"
   id="path19" />
	<path
   class="st1" fill="rgb(51 84 109)" stroke="rgb(51 84 109)"
   d="m 492.1,205.59 c 4,-0.58 4,-0.58 5.22,2.83 1.58,4.44 3.15,8.88 4.73,13.32 0.26,0.72 0.56,1.42 1.07,2.71 1.6,-4.16 3.1,-7.73 4.28,-11.41 0.28,-0.87 -0.45,-2.1 -0.8,-3.14 -0.49,-1.43 -1.06,-2.82 -1.62,-4.3 2.3,-0.71 3.58,-0.27 4.42,2.13 1.89,5.4 4.13,10.68 6.39,16.43 1.94,-5.61 3.87,-10.77 5.46,-16.03 0.76,-2.54 2.02,-3.36 4.79,-2.54 -3.38,8.97 -6.76,17.93 -10.34,27.43 -2.16,-5.46 -4.11,-10.42 -6.23,-15.78 -2.3,5.33 -4.46,10.32 -6.86,15.85 -3.6,-9.45 -7.01,-18.37 -10.51,-27.5 z"
   id="path20" />
	<path
   class="st1" fill="rgb(51 84 109)" stroke="rgb(51 84 109)"
   d="m 525.28,245.87 c 4.42,6.27 8.59,12.17 12.94,18.35 4.4,-6.12 8.64,-12.03 13.17,-18.34 0,9.31 0,18.12 0,27.1 -1,0 -2,0 -3.27,0 0,-5.35 0,-10.73 0,-16.12 -0.19,-0.07 -0.38,-0.14 -0.57,-0.21 -3.06,4.3 -6.11,8.6 -9.35,13.16 -3.1,-4.3 -6.1,-8.46 -9.1,-12.62 -0.15,0.06 -0.3,0.11 -0.44,0.17 0,5.15 0,10.3 0,15.62 -1.21,0 -2.21,0 -3.38,0 0,-8.83 0,-17.72 0,-27.11 z"
   id="path21" />
	<path
   class="st1" fill="rgb(51 84 109)" stroke="rgb(51 84 109)"
   d="m 500.09,246.22 c 7.37,-0.01 13.55,6.15 13.62,13.59 0.07,7.42 -6.04,13.54 -13.55,13.58 -7.7,0.04 -13.72,-5.95 -13.7,-13.63 0.01,-7.43 6.15,-13.52 13.63,-13.54 z M 500,269.96 c 5.54,0.08 9.94,-4.39 9.97,-10.11 0.03,-5.62 -4.44,-10.22 -9.92,-10.23 -5.4,-0.01 -9.73,4.41 -9.84,10.04 -0.12,5.66 4.22,10.22 9.79,10.3 z"
   id="path22" />
	<path
   class="st1" fill="rgb(51 84 109)" stroke="rgb(51 84 109)"
   d="m 698.44,246.22 c 7.34,0.02 13.51,6.27 13.51,13.69 0,7.44 -6.12,13.47 -13.66,13.47 -7.67,0 -13.69,-6.09 -13.6,-13.74 0.1,-7.43 6.24,-13.44 13.75,-13.42 z m 9.76,13.64 c 0.03,-5.62 -4.42,-10.23 -9.91,-10.24 -5.5,-0.01 -9.86,4.53 -9.85,10.27 0,5.55 4.31,9.98 9.78,10.07 5.54,0.09 9.95,-4.37 9.98,-10.1 z"
   id="path23" />
	<path
   class="st1" fill="rgb(51 84 109)" stroke="rgb(51 84 109)"
   d="m 748.91,259.83 c 0.06,7.43 -6.05,13.53 -13.57,13.56 -7.69,0.03 -13.71,-5.97 -13.69,-13.65 0.03,-7.33 6.09,-13.43 13.42,-13.52 7.52,-0.08 13.78,6.07 13.84,13.61 z m -13.5,10.13 c 5.55,-0.06 9.85,-4.61 9.75,-10.32 -0.09,-5.53 -4.49,-9.99 -9.89,-10.01 -5.58,-0.02 -9.99,4.67 -9.87,10.49 0.12,5.54 4.55,9.9 10.01,9.84 z"
   id="path24" />
	<path
   class="st1" fill="rgb(51 84 109)" stroke="rgb(51 84 109)"
   d="m 500.59,287.5 c 7.37,-0.01 13.54,6.16 13.6,13.6 0.06,7.43 -6.05,13.53 -13.57,13.56 -7.69,0.03 -13.71,-5.97 -13.69,-13.64 0.03,-7.42 6.17,-13.51 13.66,-13.52 z m -0.09,23.74 c 5.54,0.06 9.93,-4.41 9.94,-10.13 0.01,-5.62 -4.47,-10.21 -9.95,-10.2 -5.4,0.01 -9.72,4.43 -9.82,10.06 -0.09,5.65 4.27,10.21 9.83,10.27 z"
   id="path25" />
	<path
   class="st1" fill="rgb(51 84 109)" stroke="rgb(51 84 109)"
   d="m 475.03,273.06 c -1.2,0 -2.14,0 -3.38,0 0,-3.77 0,-7.49 0,-11.36 -4.72,0 -9.15,0 -13.88,0 0,3.74 0,7.45 0,11.29 -1.36,0 -2.43,0 -3.6,0 0,-8.79 0,-17.48 0,-26.36 1.08,0 2.14,0 3.49,0 0,3.69 0,7.33 0,11.15 4.7,0 9.12,0 13.83,0 0,-3.68 0,-7.32 0,-11.14 1.33,0 2.38,0 3.54,0 0,8.82 0,17.51 0,26.42 z"
   id="path26" />
	<path
   class="st1" fill="rgb(51 84 109)" stroke="rgb(51 84 109)"
   d="m 652.44,246.58 c 1.12,0 2.13,0 3.41,0 0,3.69 0,7.32 0,11.17 4.69,0 9.12,0 13.83,0 0,-3.59 0,-7.23 0,-11.08 1.33,0 2.38,0 3.56,0 0,8.73 0,17.41 0,26.28 -1.07,0 -2.13,0 -3.38,0 0,-3.71 0,-7.37 0,-11.22 -4.62,0 -9.05,0 -13.79,0 0,3.65 0,7.36 0,11.23 -1.36,0 -2.43,0 -3.63,0 0,-8.75 0,-17.49 0,-26.38 z"
   id="path27" />
	<path
   class="st1" fill="rgb(51 84 109)" stroke="rgb(51 84 109)"
   d="m 635.3,302.96 c 0,3.85 0,7.57 0,11.37 -1.3,0 -2.32,0 -3.49,0 0,-8.8 0,-17.55 0,-26.45 1.07,0 2.08,0 3.37,0 0,3.64 0,7.28 0,11.14 4.69,0 9.12,0 13.91,0 0,-3.61 0,-7.31 0,-11.14 1.36,0 2.35,0 3.5,0 0,8.84 0,17.58 0,26.43 -1.13,0 -2.14,0 -3.43,0 0,-3.8 0,-7.52 0,-11.36 -4.71,0.01 -9.15,0.01 -13.86,0.01 z"
   id="path28" />
	<path
   class="st1" fill="rgb(51 84 109)" stroke="rgb(51 84 109)"
   d="m 599.95,224.44 c 0,-6.74 0,-12.8 0,-19.07 1.14,0 2.19,0 3.39,0 0,8.97 0,17.87 0,26.88 -6.46,-6.36 -12.78,-12.59 -19.39,-19.11 0,6.37 0,12.38 0,18.55 -1.27,0 -2.33,0 -3.52,0 0,-8.96 0,-17.86 0,-27.32 6.58,6.77 12.83,13.2 19.52,20.07 z"
   id="path29" />
	<path
   class="st1" fill="rgb(51 84 109)" stroke="rgb(51 84 109)"
   d="m 775.8,287.6 c 3.37,0.16 6.66,0.07 9.86,0.55 3.13,0.46 5.48,2.4 6.21,5.6 0.74,3.27 0.29,6.39 -2.38,8.81 -0.46,0.42 -0.95,0.79 -1.55,1.29 2.11,3.45 4.18,6.82 6.32,10.31 -2.53,0.64 -4.35,0.4 -5.5,-2.07 -0.77,-1.65 -1.95,-3.11 -2.93,-4.66 -2.06,-3.26 -2.05,-3.26 -6.45,-2.55 0,3.03 0,6.11 0,9.36 -1.32,0 -2.38,0 -3.58,0 0,-8.75 0,-17.5 0,-26.64 z m 3.66,3.74 c 0,3.39 0,6.46 0,9.86 2.93,-0.25 5.97,0.78 8.05,-2.04 1.29,-1.76 1.3,-3.76 0.16,-5.63 -1.99,-3.24 -5.16,-2.02 -8.21,-2.19 z"
   id="path30" />
	<path
   class="st1" fill="rgb(51 84 109)" stroke="rgb(51 84 109)"
   d="m 830.13,262.54 c 1.13,1.83 2.17,3.52 3.21,5.22 1.03,1.68 2.06,3.36 3.14,5.13 -2.54,0.67 -4.35,0.37 -5.5,-2.09 -0.77,-1.65 -1.95,-3.11 -2.93,-4.66 -2.06,-3.27 -2.06,-3.27 -6.45,-2.5 0,3.03 0,6.11 0,9.35 -1.32,0 -2.39,0 -3.58,0 0,-8.73 0,-17.42 0,-26.4 3.86,-0.11 7.73,-0.64 11.5,0.76 6.15,2.27 6.61,11.46 0.61,15.19 z m -8.44,-2.65 c 3.18,-0.17 6.38,0.78 8.29,-2.4 1.12,-1.87 0.98,-3.88 -0.33,-5.63 -2.14,-2.86 -5.16,-1.56 -7.96,-1.85 0,3.42 0,6.49 0,9.88 z"
   id="path31" />
	<path
   class="st1" fill="rgb(51 84 109)" stroke="rgb(51 84 109)"
   d="m 545.99,303.84 c 2.15,3.48 4.19,6.8 6.33,10.27 -2.41,0.68 -4.22,0.58 -5.4,-1.89 -0.75,-1.57 -2.05,-2.89 -2.77,-4.47 -1.31,-2.87 -3.35,-3.84 -6.66,-2.85 0,2.97 0,6.12 0,9.39 -1.35,0 -2.36,0 -3.56,0 0,-8.7 0,-17.44 0,-26.76 3.52,0.26 7.18,0.02 10.57,0.89 6.15,1.57 7.82,9.69 3.17,14.05 -0.47,0.42 -0.99,0.8 -1.68,1.37 z m -8.43,-12.5 c 0,3.43 0,6.5 0,9.77 2.97,-0.07 6.01,0.82 8.06,-2 1.28,-1.76 1.27,-3.78 0.1,-5.63 -2.01,-3.2 -5.18,-1.95 -8.16,-2.14 z"
   id="path32" />
	<path
   class="st1" fill="rgb(51 84 109)" stroke="rgb(51 84 109)"
   d="m 823.15,228.31 c 0,1.35 0,2.29 0,3.39 -5.85,0 -11.64,0 -17.57,0 0,-8.76 0,-17.5 0,-26.39 5.7,0 11.34,0 17.06,0 0,1.14 0,2.15 0,3.39 -4.46,0 -8.83,0 -13.37,0 0,2.71 0,5.2 0,7.95 3.99,0 7.87,0 11.89,0 0,1.26 0,2.26 0,3.57 -3.92,0 -7.87,0 -11.94,0 0,2.82 0,5.33 0,8.09 4.65,0 9.17,0 13.93,0 z"
   id="path33" />
	<path
   class="st1" fill="rgb(51 84 109)" stroke="rgb(51 84 109)"
   d="m 580.7,261.54 c -4.06,0 -7.88,0 -11.9,0 0,2.71 0,5.27 0,8.09 4.64,0 9.16,0 13.8,0 0,1.24 0,2.24 0,3.37 -5.83,0 -11.62,0 -17.53,0 0,-8.76 0,-17.44 0,-26.34 5.61,0 11.22,0 17.01,0 0,1.02 0,2.07 0,3.36 -4.45,0 -8.81,0 -13.33,0 0,2.66 0,5.09 0,7.86 3.94,0 7.89,0 11.95,0 0,1.34 0,2.35 0,3.66 z"
   id="path34" />
	<path
   class="st1" fill="rgb(51 84 109)" stroke="rgb(51 84 109)"
   d="m 806.33,269.62 c 0,1.36 0,2.3 0,3.38 -5.87,0 -11.66,0 -17.57,0 0,-8.75 0,-17.43 0,-26.33 5.6,0 11.22,0 17.01,0 0,1.01 0,2.07 0,3.35 -4.44,0 -8.8,0 -13.32,0 0,2.66 0,5.09 0,7.86 3.94,0 7.88,0 11.94,0 0,1.34 0,2.35 0,3.59 -3.92,0 -7.8,0 -11.89,0 0,2.78 0,5.34 0,8.16 4.61,-0.01 9.13,-0.01 13.83,-0.01 z"
   id="path35" />
	<path
   class="st1" fill="rgb(51 84 109)" stroke="rgb(51 84 109)"
   d="m 674,314.25 c 0,-8.85 0,-17.54 0,-26.37 5.73,0 11.37,0 17.11,0 0,1.12 0,2.13 0,3.37 -4.45,0 -8.81,0 -13.36,0 0,2.71 0,5.2 0,7.95 3.96,0 7.84,0 11.87,0 0,1.26 0,2.25 0,3.57 -3.9,0 -7.84,0 -11.92,0 0,2.82 0,5.33 0,8.09 4.63,0 9.16,0 13.84,0 0,1.23 0,2.23 0,3.4 -5.75,-0.01 -11.53,-0.01 -17.54,-0.01 z"
   id="path36" />
	<path
   class="st1" fill="rgb(51 84 109)" stroke="rgb(51 84 109)"
   d="m 733.78,314.07 c 3.77,-9.01 7.54,-18.02 11.57,-27.68 4.04,9.63 7.85,18.68 11.67,27.79 -3.95,0.53 -3.95,0.53 -5.23,-2.79 -0.29,-0.74 -0.66,-1.46 -0.86,-2.23 -0.34,-1.3 -1.08,-1.86 -2.42,-1.7 -0.63,0.07 -1.29,0.1 -1.91,0 -4.69,-0.82 -7.93,0.43 -8.99,5.63 -0.16,0.78 -2.07,1.21 -3.16,1.8 -0.22,-0.27 -0.45,-0.54 -0.67,-0.82 z m 15.21,-9.84 c -1.3,-3.29 -2.45,-6.22 -3.76,-9.54 -1.37,3.39 -2.58,6.38 -3.85,9.54 2.67,0 4.96,0 7.61,0 z"
   id="path37" />
	<path
   class="st1" fill="rgb(51 84 109)" stroke="rgb(51 84 109)"
   d="m 609.59,248.01 c -0.74,1.48 -1.12,2.25 -1.46,2.92 -2.16,-0.48 -4.14,-1.12 -6.17,-1.31 -2.11,-0.2 -4.11,0.43 -4.67,2.83 -0.54,2.35 1.12,3.5 2.93,4.36 1.58,0.75 3.27,1.3 4.85,2.06 3.61,1.73 5.11,4.62 4.47,8.39 -0.54,3.18 -3.27,5.62 -6.89,6.04 -3.71,0.43 -7.12,-0.42 -10.36,-2.7 0.44,-0.85 0.87,-1.67 1.31,-2.52 1.79,0.66 3.43,1.57 5.17,1.83 1.58,0.24 3.41,0.13 4.86,-0.47 2.83,-1.15 3.17,-4.8 0.72,-6.65 -1.06,-0.81 -2.37,-1.3 -3.59,-1.88 -0.72,-0.35 -1.5,-0.57 -2.22,-0.9 -4.13,-1.9 -5.75,-4.66 -4.88,-8.25 0.8,-3.28 4.12,-5.69 8.1,-5.4 2.5,0.19 4.94,1.02 7.83,1.65 z"
   id="path38" />
	<path
   class="st1" fill="rgb(51 84 109)" stroke="rgb(51 84 109)"
   d="m 846.17,311.84 c 0.5,-0.9 0.95,-1.71 1.37,-2.47 1.88,0.69 3.53,1.53 5.28,1.87 1.35,0.26 3.02,0.29 4.17,-0.3 1.17,-0.6 2.46,-2.02 2.62,-3.23 0.16,-1.2 -0.68,-3.05 -1.69,-3.78 -1.84,-1.33 -4.15,-1.99 -6.22,-3.02 -2.51,-1.25 -4.29,-3.04 -4.31,-6.09 -0.02,-3.17 1.93,-5.82 5.12,-6.75 3.76,-1.09 7.22,-0.21 10.72,1.68 -0.44,0.93 -0.8,1.7 -1.24,2.65 -1.11,-0.38 -2.11,-0.86 -3.17,-1.04 -1.48,-0.25 -3.13,-0.69 -4.46,-0.27 -1.24,0.39 -2.74,1.65 -3.03,2.8 -0.25,0.99 0.74,2.8 1.72,3.48 1.73,1.21 3.89,1.8 5.83,2.73 2.79,1.33 4.62,3.34 4.65,6.66 0.03,3.87 -2.15,6.83 -5.92,7.63 -4.1,0.86 -7.88,-0.03 -11.44,-2.55 z"
   id="path39" />
	<path
   class="st1" fill="rgb(51 84 109)" stroke="rgb(51 84 109)"
   d="m 846.15,229.28 c 0.56,-0.96 1.03,-1.77 1.42,-2.44 1.92,0.7 3.59,1.52 5.35,1.87 1.27,0.26 2.86,0.29 3.95,-0.28 1.18,-0.62 2.3,-1.9 2.81,-3.16 0.66,-1.63 -0.22,-3.18 -1.77,-4.03 -1.67,-0.92 -3.46,-1.62 -5.21,-2.41 -4.31,-1.94 -6,-4.68 -5.11,-8.34 0.85,-3.5 4.61,-5.93 8.81,-5.4 2.25,0.28 4.44,1.06 7.02,1.71 -0.62,1.29 -1.01,2.11 -1.36,2.85 -2.16,-0.48 -4.15,-1.12 -6.17,-1.32 -2.11,-0.2 -4.11,0.42 -4.67,2.82 -0.55,2.35 1.11,3.5 2.92,4.36 1.58,0.75 3.27,1.3 4.85,2.06 3.61,1.73 5.11,4.61 4.47,8.39 -0.53,3.18 -3.26,5.62 -6.88,6.05 -3.71,0.45 -7.12,-0.4 -10.43,-2.73 z"
   id="path40" />
	<path
   class="st1" fill="rgb(51 84 109)" stroke="rgb(51 84 109)"
   d="m 845.69,270.56 c 0.49,-0.88 0.94,-1.69 1.38,-2.47 1.84,0.68 3.49,1.57 5.24,1.85 1.5,0.24 3.24,0.13 4.65,-0.41 2.95,-1.15 3.32,-4.87 0.79,-6.79 -0.88,-0.67 -1.93,-1.12 -2.94,-1.59 -0.94,-0.44 -1.94,-0.74 -2.88,-1.18 -3.95,-1.83 -5.52,-4.36 -4.89,-7.82 0.58,-3.21 3.44,-5.77 7.32,-5.74 2.77,0.02 5.53,0.91 8.73,1.5 -0.76,1.53 -1.17,2.35 -1.5,3.01 -2.23,-0.48 -4.22,-1.13 -6.25,-1.3 -2.54,-0.21 -4.3,1.03 -4.62,2.91 -0.38,2.25 1.1,3.38 2.83,4.21 1.65,0.8 3.41,1.36 5.06,2.16 3.51,1.7 4.95,4.46 4.41,8.2 -0.46,3.2 -3.14,5.7 -6.76,6.17 -3.81,0.5 -7.29,-0.36 -10.57,-2.71 z"
   id="path41" />
	<path
   class="st1" fill="rgb(51 84 109)" stroke="rgb(51 84 109)"
   d="m 469.74,288.02 c 0,0.99 0,1.99 0,3.28 -2.08,0 -4.05,0 -6.03,0 -1.9,0 -3.8,0 -5.85,0 0,2.82 0,5.4 0,8.25 3.46,0 6.86,0 10.4,0 0,1.26 0,2.26 0,3.54 -3.39,0 -6.79,0 -10.5,0 0,3.89 0,7.51 0,11.23 -1.34,0 -2.36,0 -3.54,0 0,-8.68 0,-17.34 0,-26.3 5.08,0 10.24,0 15.52,0 z"
   id="path42" />
	<path
   class="st1" fill="rgb(51 84 109)" stroke="rgb(51 84 109)"
   d="m 679.63,207.16 c -0.46,1.08 -0.88,2.08 -1.3,3.08 -6.38,-2.72 -10.55,-2.14 -13.54,1.75 -2.96,3.85 -3.01,9.33 -0.12,13.15 2.9,3.84 7.56,4.47 13.9,1.76 0.44,0.89 0.88,1.79 1.32,2.66 -4.21,3.76 -12.22,3.34 -16.78,-0.79 -5.03,-4.55 -5.81,-12.99 -1.72,-18.58 4.08,-5.56 11.67,-6.91 18.24,-3.03 z"
   id="path43" />
	<path
   class="st1" fill="rgb(51 84 109)" stroke="rgb(51 84 109)"
   d="m 640.24,248.48 c -0.4,0.97 -0.81,1.98 -1.29,3.17 -2.85,-1.55 -5.71,-2.82 -8.73,-1.55 -1.77,0.75 -3.58,1.88 -4.8,3.33 -3.06,3.66 -2.98,9.11 -0.17,12.9 2.83,3.84 6.99,4.43 14.02,1.93 0.42,0.89 0.84,1.8 1.25,2.67 -4.96,3.84 -13.04,3.11 -17.41,-1.45 -4.64,-4.83 -4.96,-13.26 -0.71,-18.49 4.26,-5.24 11.83,-6.36 17.84,-2.51 z"
   id="path44" />
	<path
   class="st1" fill="rgb(51 84 109)" stroke="rgb(51 84 109)"
   d="m 594.69,291.27 c 0,-1.38 0,-2.24 0,-3.33 5.85,0 11.63,0 17.57,0 0,1 0,1.99 0,3.3 -2.25,0 -4.52,0 -7.04,0 0,7.86 0,15.41 0,23.07 -1.27,0 -2.28,0 -3.57,0 0,-7.64 0,-15.2 0,-23.04 -2.48,0 -4.67,0 -6.96,0 z"
   id="path45" />
	<path
   class="st1" fill="rgb(51 84 109)" stroke="rgb(51 84 109)"
   d="m 739.98,208.71 c -2.6,0 -4.73,0 -6.99,0 0,-1.21 0,-2.21 0,-3.38 5.88,0 11.67,0 17.55,0 0,1.12 0,2.13 0,3.35 -2.32,0 -4.53,0 -7.01,0 0,7.77 0,15.32 0,23.02 -1.27,0 -2.27,0 -3.55,0 0,-7.54 0,-15.09 0,-22.99 z"
   id="path46" />
	<path
   class="st1" fill="rgb(51 84 109)" stroke="rgb(51 84 109)"
   d="m 821.7,291.22 c 0,7.88 0,15.38 0,23.03 -1.18,0 -2.17,0 -3.46,0 0,-7.51 0,-15.06 0,-22.89 -2.47,0 -4.67,0 -7.01,0 0,-1.28 0,-2.28 0,-3.46 5.84,0 11.63,0 17.54,0 0,1.09 0,2.09 0,3.32 -2.3,0 -4.51,0 -7.07,0 z"
   id="path47" />
	<path
   class="st1" fill="rgb(51 84 109)" stroke="rgb(51 84 109)"
   d="m 469.78,205.29 c 0,1.18 0,2.12 0,3.38 -2.32,0 -4.59,0 -7.12,0 0,7.86 0,15.41 0,23.07 -1.27,0 -2.28,0 -3.57,0 0,-7.62 0,-15.18 0,-22.95 -2.4,0 -4.53,0 -6.85,0 0,-1.26 0,-2.31 0,-3.49 5.82,-0.01 11.55,-0.01 17.54,-0.01 z"
   id="path48" />
	<path
   class="st1" fill="rgb(51 84 109)" stroke="rgb(51 84 109)"
   d="m 760.47,246.6 c 1.2,0 2.2,0 3.51,0 0,7.69 0,15.24 0,23.05 4.58,0 8.86,0 13.26,0 0,1.27 0,2.26 0,3.37 -5.63,0 -11.11,0 -16.77,0 0,-8.76 0,-17.5 0,-26.42 z"
   id="path49" />
	<path
   class="st1" fill="rgb(51 84 109)" stroke="rgb(51 84 109)"
   d="m 705.25,205.32 c 1.21,0 2.21,0 3.35,0 0,8.88 0,17.62 0,26.45 -1.16,0 -2.18,0 -3.35,0 0,-8.79 0,-17.53 0,-26.45 z"
   id="path50" />
	<path
   class="st1" fill="rgb(51 84 109)" stroke="rgb(51 84 109)"
   d="m 775.32,205.25 c 1.19,0 2.13,0 3.29,0 0,8.8 0,17.52 0,26.43 -1.03,0 -2.09,0 -3.29,0 0,-8.73 0,-17.47 0,-26.43 z"
   id="path51" />
	<path
   class="st1" fill="rgb(51 84 109)" stroke="rgb(51 84 109)"
   d="m 554,231.76 c -1.18,0 -2.19,0 -3.33,0 0,-8.84 0,-17.57 0,-26.45 1.12,0 2.12,0 3.33,0 0,8.77 0,17.5 0,26.45 z"
   id="path52" />
</svg>
