<?xml version="1.0" encoding="UTF-8" standalone="no"?>
<svg
   id="Layer_1"
   data-name="Layer 1"
   viewBox="0 0 370.35999 401.22"
   version="1.1"
   width="370.35999"
   height="401.22"
   xmlns="http://www.w3.org/2000/svg"
   xmlns:svg="http://www.w3.org/2000/svg">
  <defs
     id="defs1">
    <style
       id="style1">
      .cls-1, .cls-2 {
        stroke-width: 0px;
      }

      .cls-2 {
        fill: #fff;
      }
    </style>
    <filter
       style="color-interpolation-filters:sRGB"
       id="filter39"
       x="0"
       y="0"
       width="1"
       height="1">
      <feColorMatrix
         type="hueRotate"
         values="180"
         result="color1"
         id="feColorMatrix38" />
      <feColorMatrix
         values="-1 0 0 0 1 0 -1 0 0 1 0 0 -1 0 1 -0.21 -0.72 -0.07 2 0 "
         result="color2"
         id="feColorMatrix39" />
    </filter>
    <filter
       style="color-interpolation-filters:sRGB"
       id="filter41"
       x="0"
       y="0"
       width="1"
       height="1">
      <feColorMatrix
         type="hueRotate"
         values="180"
         result="color1"
         id="feColorMatrix40" />
      <feColorMatrix
         values="-1 0 0 0 1 0 -1 0 0 1 0 0 -1 0 1 -0.21 -0.72 -0.07 2 0 "
         result="color2"
         id="feColorMatrix41" />
    </filter>
    <filter
       style="color-interpolation-filters:sRGB"
       id="filter43"
       x="0"
       y="0"
       width="1"
       height="1">
      <feColorMatrix
         type="hueRotate"
         values="180"
         result="color1"
         id="feColorMatrix42" />
      <feColorMatrix
         values="-1 0 0 0 1 0 -1 0 0 1 0 0 -1 0 1 -0.21 -0.72 -0.07 2 0 "
         result="color2"
         id="feColorMatrix43" />
    </filter>
    <filter
       style="color-interpolation-filters:sRGB"
       id="filter45"
       x="0"
       y="0"
       width="1"
       height="1">
      <feColorMatrix
         type="hueRotate"
         values="180"
         result="color1"
         id="feColorMatrix44" />
      <feColorMatrix
         values="-1 0 0 0 1 0 -1 0 0 1 0 0 -1 0 1 -0.21 -0.72 -0.07 2 0 "
         result="color2"
         id="feColorMatrix45" />
    </filter>
    <filter
       style="color-interpolation-filters:sRGB"
       id="filter47"
       x="0"
       y="0"
       width="1"
       height="1">
      <feColorMatrix
         type="hueRotate"
         values="180"
         result="color1"
         id="feColorMatrix46" />
      <feColorMatrix
         values="-1 0 0 0 1 0 -1 0 0 1 0 0 -1 0 1 -0.21 -0.72 -0.07 2 0 "
         result="color2"
         id="feColorMatrix47" />
    </filter>
    <filter
       style="color-interpolation-filters:sRGB"
       id="filter49"
       x="0"
       y="0"
       width="1"
       height="1">
      <feColorMatrix
         type="hueRotate"
         values="180"
         result="color1"
         id="feColorMatrix48" />
      <feColorMatrix
         values="-1 0 0 0 1 0 -1 0 0 1 0 0 -1 0 1 -0.21 -0.72 -0.07 2 0 "
         result="color2"
         id="feColorMatrix49" />
    </filter>
    <filter
       style="color-interpolation-filters:sRGB"
       id="filter51"
       x="0"
       y="0"
       width="1"
       height="1">
      <feColorMatrix
         type="hueRotate"
         values="180"
         result="color1"
         id="feColorMatrix50" />
      <feColorMatrix
         values="-1 0 0 0 1 0 -1 0 0 1 0 0 -1 0 1 -0.21 -0.72 -0.07 2 0 "
         result="color2"
         id="feColorMatrix51" />
    </filter>
    <filter
       style="color-interpolation-filters:sRGB"
       id="filter53"
       x="0"
       y="0"
       width="1"
       height="1">
      <feColorMatrix
         type="hueRotate"
         values="180"
         result="color1"
         id="feColorMatrix52" />
      <feColorMatrix
         values="-1 0 0 0 1 0 -1 0 0 1 0 0 -1 0 1 -0.21 -0.72 -0.07 2 0 "
         result="color2"
         id="feColorMatrix53" />
    </filter>
    <filter
       style="color-interpolation-filters:sRGB"
       id="filter55"
       x="0"
       y="0"
       width="1"
       height="1">
      <feColorMatrix
         type="hueRotate"
         values="180"
         result="color1"
         id="feColorMatrix54" />
      <feColorMatrix
         values="-1 0 0 0 1 0 -1 0 0 1 0 0 -1 0 1 -0.21 -0.72 -0.07 2 0 "
         result="color2"
         id="feColorMatrix55" />
    </filter>
    <filter
       style="color-interpolation-filters:sRGB"
       id="filter57"
       x="0"
       y="0"
       width="1"
       height="1">
      <feColorMatrix
         type="hueRotate"
         values="180"
         result="color1"
         id="feColorMatrix56" />
      <feColorMatrix
         values="-1 0 0 0 1 0 -1 0 0 1 0 0 -1 0 1 -0.21 -0.72 -0.07 2 0 "
         result="color2"
         id="feColorMatrix57" />
    </filter>
    <filter
       style="color-interpolation-filters:sRGB"
       id="filter59"
       x="0"
       y="0"
       width="1"
       height="1">
      <feColorMatrix
         type="hueRotate"
         values="180"
         result="color1"
         id="feColorMatrix58" />
      <feColorMatrix
         values="-1 0 0 0 1 0 -1 0 0 1 0 0 -1 0 1 -0.21 -0.72 -0.07 2 0 "
         result="color2"
         id="feColorMatrix59" />
    </filter>
    <filter
       style="color-interpolation-filters:sRGB"
       id="filter61"
       x="0"
       y="0"
       width="1"
       height="1">
      <feColorMatrix
         type="hueRotate"
         values="180"
         result="color1"
         id="feColorMatrix60" />
      <feColorMatrix
         values="-1 0 0 0 1 0 -1 0 0 1 0 0 -1 0 1 -0.21 -0.72 -0.07 2 0 "
         result="color2"
         id="feColorMatrix61" />
    </filter>
    <filter
       style="color-interpolation-filters:sRGB"
       id="filter63"
       x="0"
       y="0"
       width="1"
       height="1">
      <feColorMatrix
         type="hueRotate"
         values="180"
         result="color1"
         id="feColorMatrix62" />
      <feColorMatrix
         values="-1 0 0 0 1 0 -1 0 0 1 0 0 -1 0 1 -0.21 -0.72 -0.07 2 0 "
         result="color2"
         id="feColorMatrix63" />
    </filter>
    <filter
       style="color-interpolation-filters:sRGB"
       id="filter65"
       x="0"
       y="0"
       width="1"
       height="1">
      <feColorMatrix
         type="hueRotate"
         values="180"
         result="color1"
         id="feColorMatrix64" />
      <feColorMatrix
         values="-1 0 0 0 1 0 -1 0 0 1 0 0 -1 0 1 -0.21 -0.72 -0.07 2 0 "
         result="color2"
         id="feColorMatrix65" />
    </filter>
    <filter
       style="color-interpolation-filters:sRGB"
       id="filter67"
       x="0"
       y="0"
       width="1"
       height="1">
      <feColorMatrix
         type="hueRotate"
         values="180"
         result="color1"
         id="feColorMatrix66" />
      <feColorMatrix
         values="-1 0 0 0 1 0 -1 0 0 1 0 0 -1 0 1 -0.21 -0.72 -0.07 2 0 "
         result="color2"
         id="feColorMatrix67" />
    </filter>
    <filter
       style="color-interpolation-filters:sRGB"
       id="filter69"
       x="0"
       y="0"
       width="1"
       height="1">
      <feColorMatrix
         type="hueRotate"
         values="180"
         result="color1"
         id="feColorMatrix68" />
      <feColorMatrix
         values="-1 0 0 0 1 0 -1 0 0 1 0 0 -1 0 1 -0.21 -0.72 -0.07 2 0 "
         result="color2"
         id="feColorMatrix69" />
    </filter>
    <filter
       style="color-interpolation-filters:sRGB"
       id="filter71"
       x="0"
       y="0"
       width="1"
       height="1">
      <feColorMatrix
         type="hueRotate"
         values="180"
         result="color1"
         id="feColorMatrix70" />
      <feColorMatrix
         values="-1 0 0 0 1 0 -1 0 0 1 0 0 -1 0 1 -0.21 -0.72 -0.07 2 0 "
         result="color2"
         id="feColorMatrix71" />
    </filter>
    <filter
       style="color-interpolation-filters:sRGB"
       id="filter73"
       x="0"
       y="0"
       width="1"
       height="1">
      <feColorMatrix
         type="hueRotate"
         values="180"
         result="color1"
         id="feColorMatrix72" />
      <feColorMatrix
         values="-1 0 0 0 1 0 -1 0 0 1 0 0 -1 0 1 -0.21 -0.72 -0.07 2 0 "
         result="color2"
         id="feColorMatrix73" />
    </filter>
  </defs>
  <path
     class="cls-1"
     d="M 370.36,0 V 9.75 H 0 V 0 Z"
     id="path2"
     style="filter:url(#filter39)" />
  <path
     class="cls-1"
     d="m 95.6,125.76 c 2.1,-0.77 3.95,-1.49 5.84,-2.1 0.29,-0.09 0.8,0.23 1.1,0.48 7.1,6.21 14.18,12.44 21.27,18.66 5.92,5.2 11.83,10.39 17.75,15.59 0.09,0.08 0.2,0.13 0.39,0.24 0.21,-0.33 0.43,-0.64 0.61,-0.97 3.69,-6.72 7.4,-13.43 11.05,-20.17 0.41,-0.76 0.83,-1.11 1.74,-1.07 1.7,0.08 3.41,0.02 5.34,0.02 -4.83,8.8 -9.56,17.43 -14.34,26.14 12.97,11.41 25.89,22.78 38.88,34.21 2.91,-2.55 5.76,-5.05 8.61,-7.56 9.7,-8.52 19.39,-17.05 29.12,-25.54 0.91,-0.79 1.08,-1.33 0.46,-2.43 -4.4,-7.88 -8.72,-15.8 -13.07,-23.71 -0.17,-0.3 -0.3,-0.63 -0.52,-1.1 2.09,0 4.03,-0.04 5.97,0.04 0.33,0.01 0.73,0.54 0.93,0.91 3.71,6.71 7.39,13.43 11.08,20.15 0.19,0.35 0.39,0.68 0.66,1.15 0.35,-0.27 0.66,-0.49 0.94,-0.74 12.46,-10.95 24.93,-21.89 37.37,-32.87 0.71,-0.63 1.28,-0.71 2.11,-0.37 1.55,0.63 3.13,1.16 4.91,1.81 -14.22,12.49 -28.31,24.88 -42.51,37.36 19.47,35.46 38.94,70.89 58.53,106.56 -2.18,0 -4.19,0.04 -6.2,-0.04 -0.28,-0.01 -0.61,-0.57 -0.81,-0.93 -5.24,-9.51 -10.46,-19.03 -15.69,-28.55 -13.23,-24.08 -26.45,-48.15 -39.68,-72.23 -0.15,-0.28 -0.33,-0.54 -0.56,-0.92 -12.44,10.93 -24.83,21.81 -37.35,32.81 26.48,23.24 52.9,46.43 79.5,69.77 -0.5,0.06 -0.78,0.12 -1.06,0.12 -1.92,0 -3.84,-0.07 -5.76,0.03 -1.25,0.07 -2.17,-0.33 -3.09,-1.14 -20.13,-17.73 -40.27,-35.43 -60.42,-53.13 -4.47,-3.93 -8.96,-7.85 -13.5,-11.83 -2.63,2.31 -5.24,4.59 -7.85,6.87 -18.98,16.67 -37.96,33.34 -56.94,50.02 -3.21,2.82 -6.4,5.67 -9.66,8.45 -0.49,0.42 -1.26,0.67 -1.91,0.7 -2,0.09 -4,0.04 -6,0.03 -0.38,0 -0.77,-0.04 -1.43,-0.07 26.6,-23.36 52.99,-46.54 79.49,-69.82 -12.46,-10.95 -24.85,-21.83 -37.35,-32.81 -0.22,0.35 -0.42,0.62 -0.58,0.91 -18.42,33.53 -36.84,67.05 -55.23,100.59 -0.48,0.88 -0.98,1.29 -2.02,1.23 -1.63,-0.1 -3.26,-0.03 -5.11,-0.03 0.43,-0.82 0.77,-1.47 1.12,-2.11 18.92,-34.44 37.83,-68.88 56.77,-103.3 0.54,-0.98 0.39,-1.44 -0.42,-2.15 -13.93,-12.18 -27.83,-24.41 -41.74,-36.62 -0.18,-0.16 -0.38,-0.28 -0.75,-0.55 z"
     id="path3"
     style="filter:url(#filter41)" />
  <path
     class="cls-1"
     d="m 0.23,401.22 v -9.46 h 369.86 v 9.46 z"
     id="path4"
     style="filter:url(#filter43)" />
  <path
     class="cls-1"
     d="m 195.57,381.12 h -13.48 v -99.84 h 13.46 v 43.13 h 52.83 v -43.14 h 13.44 v 99.84 h -13.38 v -43.69 h -52.86 v 43.71 z"
     id="path5"
     style="filter:url(#filter45)" />
  <path
     class="cls-1"
     d="m 311.64,45.11 c 0,2.74 -0.01,5.25 0,7.76 0.04,6.01 3.78,11.12 9.43,12.89 8.55,2.68 17.36,-3.78 17.37,-12.74 0,-1.63 0,-3.26 0,-5.09 2.23,1.65 3.9,3.55 5.26,5.7 4.55,7.17 5.35,14.78 2.46,22.76 -5.93,16.35 -11.86,32.7 -17.79,49.05 -0.12,0.33 -0.26,0.65 -0.45,1.11 -15.63,-5.66 -31.22,-11.3 -46.91,-16.99 1.12,-3.11 2.21,-6.13 3.3,-9.15 4.93,-13.62 9.86,-27.24 14.78,-40.86 2.14,-5.92 5.79,-10.6 11.28,-13.78 0.34,-0.2 0.69,-0.37 1.27,-0.68 z"
     id="path6"
     style="filter:url(#filter47)" />
  <path
     class="cls-1"
     d="m 172.09,41.45 c 0,3.47 0,6.86 0,10.25 0,6.45 3.83,11.47 10.06,13.18 7.94,2.19 16.33,-3.92 16.6,-12.14 0.11,-3.43 0.03,-6.87 0.05,-10.31 0,-0.3 0.03,-0.61 0.08,-1.32 1.56,1.29 2.99,2.3 4.19,3.52 4.25,4.33 6.8,9.5 7.2,15.61 0.12,1.75 0.19,3.51 0.19,5.26 0.01,16.95 0,33.9 0,50.85 v 1.6 h -49.9 c -0.02,-0.51 -0.06,-1.01 -0.06,-1.51 0,-17.03 0.02,-34.06 -0.02,-51.09 0,-3.48 0,-6.93 1.05,-10.3 1.71,-5.49 4.92,-9.88 9.59,-13.22 0.16,-0.12 0.33,-0.22 0.5,-0.32 0.06,-0.04 0.15,-0.03 0.47,-0.07 z"
     id="path7"
     style="filter:url(#filter49)" />
  <path
     class="cls-1"
     d="m 58.81,45.11 c 3.7,1.87 6.57,4.37 8.94,7.51 2.29,3.05 3.46,6.61 4.74,10.12 5.41,14.93 10.83,29.86 16.24,44.79 0.09,0.26 0.17,0.53 0.32,0.99 -15.59,5.66 -31.18,11.31 -46.9,17.02 -0.41,-1.1 -0.79,-2.13 -1.17,-3.16 C 35.41,107.08 29.85,91.79 24.29,76.49 20.58,66.27 23.32,55.28 31.27,48.51 c 0.17,-0.15 0.35,-0.28 0.75,-0.6 0,1.74 0,3.24 0,4.74 0,6.68 4.21,11.96 10.71,13.47 7.13,1.65 14.93,-3.59 15.82,-10.83 0.37,-3 0.2,-6.06 0.27,-9.09 0,-0.28 0,-0.56 0,-1.08 z"
     id="path8"
     style="filter:url(#filter51)" />
  <path
     class="cls-1"
     d="m 369.64,381.19 c -5.11,0 -10.03,-0.02 -14.95,0.02 -0.88,0 -0.91,-0.63 -1.12,-1.14 -3.12,-7.82 -6.26,-15.63 -9.31,-23.48 -0.49,-1.25 -1.05,-1.73 -2.47,-1.72 -11.88,0.07 -23.76,0.06 -35.63,0.01 -1.02,0 -1.46,0.35 -1.82,1.25 -3.24,8.03 -6.54,16.04 -9.78,24.07 -0.3,0.73 -0.63,1.03 -1.46,1.02 -3.76,-0.05 -7.52,-0.02 -11.28,-0.03 -0.3,0 -0.61,-0.03 -1.06,-0.06 0.97,-2.31 1.88,-4.51 2.81,-6.7 13.51,-31.94 27.01,-63.88 40.54,-95.81 0.24,-0.57 0.72,-1.03 1.09,-1.54 0.36,0.51 0.84,0.98 1.08,1.54 14.33,33.84 28.64,67.69 42.96,101.54 0.12,0.29 0.23,0.58 0.41,1.03 z m -30.68,-37.92 c -4.78,-12.16 -9.5,-24.16 -14.33,-36.43 -5.02,12.3 -9.93,24.31 -14.88,36.43 z"
     id="path9"
     style="filter:url(#filter53)" />
  <path
     class="cls-1"
     d="m 153.69,361.85 c 1.85,3.89 3.73,7.84 5.72,12.04 -2.52,1.27 -4.94,2.57 -7.42,3.73 -6.99,3.27 -14.35,4.84 -22.07,4.72 -13.35,-0.21 -25.33,-4.11 -35.29,-13.27 -8.38,-7.7 -13.24,-17.34 -14.92,-28.53 -1.71,-11.41 -0.5,-22.52 4.61,-32.95 7.47,-15.26 19.69,-24.37 36.54,-26.89 12.74,-1.91 24.81,0.38 36.09,6.7 0.93,0.52 1.08,0.95 0.64,1.93 -1.54,3.38 -2.97,6.8 -4.45,10.21 -0.16,0.36 -0.33,0.71 -0.45,0.98 -2.69,-1.42 -5.22,-2.95 -7.91,-4.13 -9.58,-4.23 -19.38,-4.96 -29.04,-0.56 -12.58,5.73 -19.93,15.73 -22.1,29.31 -1.63,10.25 0.15,20.02 5.92,28.79 5.56,8.46 13.6,13.23 23.52,14.8 8.32,1.32 16.43,0.53 24.11,-3.16 2.22,-1.06 4.28,-2.44 6.51,-3.72 z"
     id="path10"
     style="filter:url(#filter55)" />
  <path
     class="cls-1"
     d="m 67.95,281.25 v 12.74 H 41.06 v 87.09 H 27.44 V 294.07 H 1.22 v -12.82 z"
     id="path11"
     style="filter:url(#filter57)" />
  <path
     class="cls-1"
     d="m 101.18,107.95 c 1.27,3.5 2.52,6.94 3.83,10.54 -22.91,8.3 -45.75,16.57 -68.74,24.9 -1.28,-3.53 -2.54,-6.98 -3.83,-10.53 22.96,-8.32 45.8,-16.59 68.73,-24.9 z"
     id="path12"
     style="filter:url(#filter59)" />
  <path
     class="cls-1"
     d="m 337.33,133.78 c -1.29,3.55 -2.54,6.98 -3.83,10.53 -22.93,-8.31 -45.78,-16.58 -68.72,-24.89 1.27,-3.53 2.51,-6.96 3.81,-10.54 22.92,8.3 45.79,16.58 68.75,24.9 z"
     id="path13"
     style="filter:url(#filter61)" />
  <path
     class="cls-1"
     d="m 221.73,121.7 v 10.98 h -73.01 c -0.04,-0.33 -0.09,-0.6 -0.09,-0.87 0,-3.35 0,-6.69 0,-10.11 h 73.11 z"
     id="path14"
     style="filter:url(#filter63)" />
  <path
     class="cls-1"
     d="m 316.16,18.04 h 17.72 v 1.27 c 0,11.19 0,22.38 0,33.57 0,5.08 -3.9,9.03 -8.87,9.01 -4.92,-0.02 -8.86,-4.05 -8.86,-9.09 0,-11.15 0.01,-22.3 0.02,-33.45 0,-0.39 0,-0.79 0,-1.31 z"
     id="path15"
     style="filter:url(#filter65)" />
  <path
     class="cls-1"
     d="m 36.69,18.05 h 17.56 c 0,0.41 0,0.76 0,1.1 0,11.27 0,22.53 0,33.8 0,4.46 -2.94,7.92 -7.33,8.74 -5.19,0.97 -10.31,-3.01 -10.34,-8.34 -0.08,-11.58 0.02,-23.17 0.05,-34.76 0,-0.15 0.04,-0.31 0.07,-0.55 z"
     id="path16"
     style="filter:url(#filter67)" />
  <path
     class="cls-1"
     d="M 48.42,140.85 C 41.67,184.2 34.97,227.28 28.25,270.41 h -5.72 c 0.29,-1.91 0.56,-3.78 0.86,-5.65 1.81,-11.6 3.61,-23.2 5.42,-34.8 1.73,-11.09 3.46,-22.17 5.18,-33.26 1.72,-11.09 3.43,-22.18 5.16,-33.26 1.02,-6.55 2.05,-13.1 3.1,-19.64 0.05,-0.33 0.31,-0.77 0.58,-0.88 1.74,-0.69 3.51,-1.31 5.58,-2.06 z"
     id="path17"
     style="filter:url(#filter69)" />
  <path
     class="cls-1"
     d="m 176.69,17.02 h 17.51 v 1.29 c 0,11.14 0,22.29 0,33.43 0,5.14 -3.74,8.97 -8.74,8.98 -5.01,0 -8.79,-3.79 -8.8,-8.92 -0.02,-11.26 0,-22.53 0,-33.79 0,-0.28 0.03,-0.55 0.05,-0.99 z"
     id="path18"
     style="filter:url(#filter71)" />
  <path
     class="cls-1"
     d="m 322.64,144.24 c 1.92,0.7 3.75,1.33 5.56,2.05 0.27,0.11 0.52,0.59 0.57,0.92 1.32,8.4 2.61,16.8 3.92,25.2 1.64,10.53 3.28,21.06 4.92,31.59 1.71,11 3.43,22.01 5.14,33.01 1.64,10.57 3.29,21.14 4.93,31.71 0.08,0.51 0.14,1.02 0.23,1.74 -1.81,0 -3.55,0.03 -5.28,-0.04 -0.2,0 -0.5,-0.56 -0.55,-0.89 -1.24,-7.85 -2.44,-15.7 -3.66,-23.55 -1.55,-9.98 -3.12,-19.96 -4.67,-29.93 -1.56,-10.02 -3.12,-20.04 -4.68,-30.05 -1.56,-10.02 -3.13,-20.03 -4.69,-30.05 -0.58,-3.71 -1.16,-7.41 -1.73,-11.12 -0.02,-0.15 0,-0.31 0,-0.6 z"
     id="path19"
     style="filter:url(#filter73)" />
</svg>
